<?xml version="1.0" encoding="UTF-8" standalone="no"?>
<!-- Created with Inkscape (http://www.inkscape.org/) -->

<svg
   xmlns:dc="http://purl.org/dc/elements/1.1/"
   xmlns:cc="http://creativecommons.org/ns#"
   xmlns:rdf="http://www.w3.org/1999/02/22-rdf-syntax-ns#"
   xmlns:svg="http://www.w3.org/2000/svg"
   xmlns="http://www.w3.org/2000/svg"
   xmlns:sodipodi="http://sodipodi.sourceforge.net/DTD/sodipodi-0.dtd"
   xmlns:inkscape="http://www.inkscape.org/namespaces/inkscape"
   width="700"
   height="800"
   viewBox="0 0 700.00001 800.00001"
   id="svg4645"
   version="1.1"
   inkscape:version="0.91 r13725"
   sodipodi:docname="weight_icon.svg">
  <defs
     id="defs4647" />
  <sodipodi:namedview
     id="base"
     pagecolor="#ffffff"
     bordercolor="#666666"
     borderopacity="1.0"
     inkscape:pageopacity="0.0"
     inkscape:pageshadow="2"
     inkscape:zoom="0.35"
     inkscape:cx="421.95816"
     inkscape:cy="530.54882"
     inkscape:document-units="px"
     inkscape:current-layer="layer1"
     showgrid="false"
     units="px"
     inkscape:window-width="1280"
     inkscape:window-height="723"
     inkscape:window-x="0"
     inkscape:window-y="25"
     inkscape:window-maximized="1" />
  <metadata
     id="metadata4650">
    <rdf:RDF>
      <cc:Work
         rdf:about="">
        <dc:format>image/svg+xml</dc:format>
        <dc:type
           rdf:resource="http://purl.org/dc/dcmitype/StillImage" />
        <dc:title></dc:title>
      </cc:Work>
    </rdf:RDF>
  </metadata>
  <g
     inkscape:label="Layer 1"
     inkscape:groupmode="layer"
     id="layer1"
     transform="translate(0,-252.36214)">
    <path
       style="color:#000000;clip-rule:nonzero;display:inline;overflow:visible;visibility:visible;opacity:1;isolation:auto;mix-blend-mode:normal;color-interpolation:sRGB;color-interpolation-filters:linearRGB;solid-color:#000000;solid-opacity:1;fill:#000000;fill-opacity:1;fill-rule:evenodd;stroke:#006fdf;stroke-width:0;stroke-linecap:round;stroke-linejoin:round;stroke-miterlimit:4;stroke-dasharray:none;stroke-dashoffset:0;stroke-opacity:1;marker:none;color-rendering:auto;image-rendering:auto;shape-rendering:auto;text-rendering:auto;enable-background:accumulate"
       d="m 334.07738,292.5341 c -107.67445,-0.0155 -194.98501,54.62116 -195.02098,122.03894 0.0938,27.14948 14.639,53.50474 41.33573,74.89841 -42.96129,3.56165 -70.52165,8.49299 -77.41631,13.852 -0.92119,0.82178 -0.6548,0.58303 -0.92119,0.82178 -0.57351,0.60087 -0.88452,1.20372 -0.93222,1.80701 -29.854756,163.81414 -61.203153,325.7932 -90.283736,468.11661 -3.8855723,19.01639 152.109236,35.14835 339.892036,35.14825 187.78176,-10e-5 339.9824,-15.73928 339.88938,-35.14825 0.0117,-2.72121 -0.33077,-3.5052 -0.33077,-3.5052 L 565.0951,504.66274 l -0.89521,-1.33929 c -6.75546,-5.32591 -33.92348,-10.23408 -76.37607,-13.7981 26.65628,-21.42152 41.14434,-47.7964 41.17227,-74.95231 C 528.96019,347.182 441.7162,292.55643 334.08445,292.5341 Z m 0,50.75302 c 70.56012,0.002 127.75263,32.33708 127.73195,72.21594 -0.0805,31.55988 -36.42285,59.43237 -89.73522,68.8217 -12.71192,-0.20965 -25.5866,-0.31901 -38.49067,-0.32695 -12.70213,0.0111 -25.37329,0.12043 -37.88627,0.32695 -53.18256,-9.45531 -89.37167,-37.3121 -89.40718,-68.8217 -0.0207,-39.8911 57.20562,-72.23116 127.78739,-72.21594 z"
       id="path4554"
       inkscape:connector-curvature="0"
       sodipodi:nodetypes="ccccccssccccccccccccccc" />
  </g>
</svg>
